<svg width="206" height="56" fill="none" xmlns="http://www.w3.org/2000/svg"><g clip-path="url(#clip0_154_1750)" fill="#F3BA2F"><path d="M10.88 22.649l7.976-8.156 7.98 8.16 4.64-4.746L18.856 5 6.24 17.903l4.64 4.746zM7.603 26l-4.64-4.746L-1.677 26l4.64 4.746L7.603 26zm3.279 3.352l7.975 8.156 7.98-8.16 4.643 4.743-.003.003L18.857 47 6.241 34.098l-.007-.007 4.648-4.74zm23.868 1.396l4.64-4.746-4.64-4.746-4.64 4.746 4.64 4.746z"/><path d="M23.563 25.998h.002l-4.71-4.816-3.48 3.559-.4.409-.824.843-.006.007.006.007 4.705 4.812 4.709-4.816.002-.003-.004-.002zm23.062-10.821h10.093c2.505 0 4.4.657 5.683 1.972.994 1.019 1.49 2.28 1.49 3.787v.063c0 .636-.076 1.199-.231 1.686a5.293 5.293 0 01-.619 1.32 4.996 4.996 0 01-.896 1.035c-.34.297-.706.552-1.097.763 1.259.488 2.25 1.151 2.973 1.989.722.838 1.084 2 1.084 3.484v.063c0 1.019-.192 1.91-.575 2.673a5.16 5.16 0 01-1.646 1.91c-.715.509-1.574.89-2.578 1.145-1.004.254-2.117.381-3.338.381H46.624V15.177zm9.084 9.004c1.058 0 1.898-.185 2.52-.557.622-.371.933-.97.933-1.797v-.064c0-.742-.27-1.31-.809-1.702-.54-.393-1.317-.59-2.333-.59h-4.729v4.71h4.418zm1.276 8.973c1.057 0 1.886-.196 2.489-.589.6-.392.902-1.002.902-1.83v-.063c0-.742-.28-1.33-.84-1.766-.56-.434-1.462-.652-2.707-.652h-5.538v4.9h5.694zm14.13-17.977h4.792v22.272h-4.792V15.177zm12.049 0h4.417L97.786 28.89V15.177h4.729v22.272h-4.076L87.893 23.29v14.16h-4.729V15.176zm33.856-.159h4.417l9.334 22.43h-5.009l-1.991-4.994h-9.209l-1.991 4.995h-4.885l9.334-22.431zm5.04 13.108l-2.894-7.222-2.893 7.222h5.787zm13.883-12.949h4.418l10.205 13.713V15.177h4.728v22.272h-4.075L140.672 23.29v14.16h-4.729V15.176zm36.595 22.653c-1.598 0-3.08-.297-4.449-.89a10.926 10.926 0 01-3.547-2.434 11.1 11.1 0 01-2.333-3.643c-.56-1.4-.84-2.896-.84-4.487v-.063c0-1.591.28-3.081.84-4.47a11.531 11.531 0 012.333-3.66 10.801 10.801 0 013.578-2.482c1.389-.604 2.925-.906 4.605-.906 1.015 0 1.943.085 2.783.254.84.17 1.602.403 2.287.7a9.914 9.914 0 011.899 1.082c.579.425 1.119.891 1.617 1.4l-3.049 3.595c-.851-.784-1.716-1.4-2.598-1.845-.882-.445-1.872-.668-2.971-.668-.913 0-1.758.18-2.535.541a6.008 6.008 0 00-2.007 1.495 7.02 7.02 0 00-1.307 2.211 7.69 7.69 0 00-.466 2.689v.063c0 .955.156 1.857.466 2.705a7.106 7.106 0 001.292 2.227 6.03 6.03 0 001.99 1.511c.779.372 1.634.557 2.567.557 1.245 0 2.297-.233 3.158-.7.86-.466 1.716-1.103 2.566-1.909l3.049 3.15a15.91 15.91 0 01-1.742 1.654 10.08 10.08 0 01-4.324 2.052c-.851.181-1.805.272-2.862.272zm14.567-22.653h16.396v4.359h-11.666v4.518h10.266v4.359h-10.266v4.677h11.822v4.36h-16.552V15.176z"/></g><defs><clipPath id="clip0_154_1750"><path fill="#fff" transform="translate(.5)" d="M0 0h205v56H0z"/></clipPath></defs></svg>