<svg width="184" height="56" fill="none" xmlns="http://www.w3.org/2000/svg"><path fill-rule="evenodd" clip-rule="evenodd" d="M11.997 47.96c-6.015 0-11.88-4.307-11.88-14.072 0-9.764 5.865-14.02 11.88-14.02 2.958 0 5.264.75 6.918 1.852l-1.805 3.956c-1.103-.801-2.757-1.302-4.41-1.302-3.61 0-6.919 2.855-6.919 9.464 0 6.61 3.41 9.515 6.918 9.515 1.654 0 3.308-.501 4.411-1.302l1.805 4.056c-1.705 1.151-3.96 1.853-6.918 1.853zm20.703 0c-7.669 0-11.88-6.06-11.88-14.072s4.211-14.02 11.88-14.02c7.67 0 11.88 6.008 11.88 14.02S40.37 47.96 32.7 47.96zm0-23.736c-4.26 0-6.366 3.805-6.366 9.614 0 5.809 2.106 9.665 6.366 9.665 4.261 0 6.366-3.856 6.366-9.665 0-5.809-2.105-9.614-6.366-9.614zm19.248-8.713c-1.805 0-3.258-1.402-3.258-3.104 0-1.703 1.453-3.105 3.258-3.105 1.804 0 3.258 1.402 3.258 3.104 0 1.703-1.454 3.105-3.258 3.105zm-2.757 4.908h5.514v26.99H49.19V20.42zM76.41 47.408V29.381c0-3.154-1.904-5.107-5.663-5.107-2.005 0-3.86.35-4.963.801v22.333H60.32V21.77c2.707-1.101 6.166-1.903 10.377-1.903 7.569 0 11.228 3.305 11.228 9.014v18.527H76.41zm20.05.552c-3.51 0-6.968-.852-9.073-1.903V8.1h5.463v13.02c1.304-.602 3.41-1.102 5.264-1.102 6.968 0 11.679 5.007 11.679 13.27 0 10.165-5.263 14.672-13.333 14.672zm.701-23.686c-1.504 0-3.258.35-4.31.901v17.727c.802.35 2.356.7 3.91.7 4.36 0 7.569-3.004 7.569-9.914 0-5.909-2.808-9.414-7.169-9.414zm27.52 23.686c-7.769 0-11.679-3.155-11.679-8.463 0-7.511 8.02-8.863 16.191-9.314V28.48c0-3.405-2.256-4.607-5.715-4.607-2.556 0-5.664.801-7.468 1.653l-1.404-3.756c2.155-.951 5.814-1.903 9.424-1.903 6.466 0 10.376 2.504 10.376 9.164v17.026c-1.955 1.051-5.915 1.903-9.725 1.903zm4.512-14.122c-5.514.3-11.028.751-11.028 5.559 0 2.854 2.206 4.606 6.366 4.606 1.755 0 3.81-.3 4.662-.7v-9.465zm17.545 14.122c-3.158 0-6.467-.852-8.422-1.903l1.855-4.207c1.403.852 4.361 1.753 6.416 1.753 2.958 0 4.913-1.452 4.913-3.706 0-2.453-2.056-3.405-4.812-4.406-3.61-1.352-7.67-3.005-7.67-8.062 0-4.457 3.459-7.562 9.474-7.562 3.258 0 5.965.802 7.87 1.903l-1.705 3.806c-1.202-.751-3.608-1.602-5.563-1.602-2.858 0-4.462 1.502-4.462 3.455 0 2.453 2.005 3.305 4.662 4.306 3.76 1.402 7.92 2.954 7.92 8.212 0 4.858-3.709 8.013-10.476 8.013zm37.143-14.172l-17.945 2.504c.551 4.857 3.709 7.31 8.271 7.31 2.707 0 5.614-.65 7.469-1.652l1.604 4.107c-2.105 1.101-5.715 1.903-9.424 1.903-8.522 0-13.284-5.459-13.284-14.072 0-8.262 4.612-14.02 12.181-14.02 7.018 0 11.178 4.606 11.178 11.867 0 .65 0 1.352-.05 2.053zm-11.228-9.915c-4.211 0-6.967 3.205-7.068 8.814l13.083-1.803c-.05-4.707-2.406-7.01-6.015-7.01z" fill="#0081C9"/></svg>