<svg width="166" height="56" fill="none" xmlns="http://www.w3.org/2000/svg"><path fill-rule="evenodd" clip-rule="evenodd" d="M135.463 12.162v25.91a1.62 1.62 0 00.412 1.139c.275.315.664.484 1.054.484h.435c.412 0 .801-.17 1.076-.484.275-.315.435-.727.435-1.14v-25.91h2.84v26.59c0 2.01-1.511 3.635-3.412 3.683h-2.176a3.396 3.396 0 01-2.496-1.066 3.773 3.773 0 01-1.031-2.618V12.162h2.863zm20.2-.291c1.901.048 3.436 1.939 3.436 3.975v2.4c0 .339-.206.63-.527.727l-2.359.702v-3.441c0-.873-.687-1.6-1.512-1.6-.824 0-1.511.703-1.511 1.6v2.86c0 1.769 1.237 4.023 1.237 4.023l3.389 6.908c1.374 2.739 1.26 4.75 1.26 4.75v3.83a4 4 0 01-1.031 2.69 3.532 3.532 0 01-2.542 1.14h-1.786c-1.924-.122-3.436-1.794-3.436-3.83v-4.29c0-.34.206-.63.527-.727l2.359-.703v5.235c0 .873.687 1.575 1.534 1.575.825 0 1.512-.727 1.489-1.623v-3.418c0-1.745-1.237-4.072-1.237-4.072l-3.343-6.908c-1.375-2.738-1.26-4.75-1.26-4.75v-3.078c0-2.085 1.58-3.975 3.573-3.975h1.74zm-53.616 0c1.924.097 3.436 1.793 3.436 3.83v23c-.023 2.012-1.535 3.66-3.436 3.758h-2.175c-1.947-.025-3.528-1.697-3.55-3.757V15.676a4 4 0 011.03-2.69 3.533 3.533 0 012.542-1.14l2.153.025zm-32.636.29l-.688 2.521c-.091.34-.366.558-.687.558H63.48v9.646h4.718l-.687 2.521c-.092.315-.367.558-.688.558H63.48V39.09h5.931l-.664 2.496c-.091.34-.366.557-.687.557h-7.42V12.162h8.771zm50.638 0c1.97.025 3.527 1.697 3.527 3.758v22.443c0 2.06-1.58 3.757-3.527 3.757h-5.497V12.162h5.497zm-37.423 9.647l2.61-9.646h2.91L84.09 27.165l4.077 15.003H85.26l-2.633-9.671-2.611 9.646h-2.909l4.054-14.978-4.077-15.003h2.909l2.634 9.646zm18.459 17.936a1.44 1.44 0 001.077-.51 1.64 1.64 0 00.412-1.163V16.235a1.64 1.64 0 00-.412-1.164 1.53 1.53 0 00-1.077-.509h-.435c-.847.049-1.511.776-1.511 1.673V38.07c0 .897.664 1.624 1.511 1.673h.435zm18.163-.63c.801 0 1.511-.436 1.511-1.6V16.791c0-1.115-.71-1.551-1.511-1.551h-1.856v23.874h1.856z" fill="#252133"/><path d="M34.117 27.238l11.91 12.603h-4.214c-.71 0-1.42-.315-1.924-.848L28.827 27.238l11.108-11.78c.504-.533 1.19-.848 1.924-.824h4.168l-11.91 12.604zm-21.826-11.78c-.504-.533-1.191-.848-1.924-.824H6.176l11.91 12.604L6.175 39.84h4.214c.71 0 1.42-.315 1.924-.848l11.085-11.78L12.29 15.458zM26.1 30.122L14.97 41.877c-.504.533-.78 1.26-.78 2.036v4.436L26.1 35.745l11.91 12.604v-4.46c0-.752-.275-1.503-.779-2.036l-11.13-11.731zm0-5.768l11.131-11.756c.504-.533.779-1.26.779-2.036V6.127L26.101 18.73 14.191 6.127v4.435c0 .752.276 1.503.78 2.036L26.1 24.353z" fill="url(#paint0_linear_154_1727)"/><defs><linearGradient id="paint0_linear_154_1727" x1="6.162" y1="27.233" x2="31.36" y2="27.233" gradientUnits="userSpaceOnUse"><stop stop-color="#00BFFF"/><stop offset="1" stop-color="#6619FF"/></linearGradient></defs></svg>