<svg width="208" height="40" fill="none" xmlns="http://www.w3.org/2000/svg"><path d="M182.914 20.17c-1.069-.707-2.247-1.21-3.362-1.838-.723-.408-1.493-.77-2.121-1.288-1.069-.88-.849-2.607.268-3.361 1.602-1.068 4.256-.471 4.539 1.712 0 .047.047.078.095.078h2.419c.063 0 .111-.047.095-.11-.126-1.507-.708-2.764-1.775-3.565-1.022-.77-2.184-1.178-3.426-1.178-6.394 0-6.976 6.77-3.535 8.906.393.25 3.77 1.947 4.965 2.685 1.194.739 1.571 2.09 1.052 3.157-.471.974-1.696 1.65-2.921 1.571-1.337-.079-2.373-.801-2.735-1.932-.063-.204-.094-.597-.094-.77a.101.101 0 00-.094-.094h-2.623c-.047 0-.095.047-.095.095 0 1.9.472 2.952 1.76 3.91 1.209.911 2.529 1.288 3.896 1.288 3.582 0 5.436-2.026 5.812-4.13.33-2.058-.282-3.911-2.12-5.137zM68.998 10.966h-2.435a.106.106 0 00-.094.063l-2.152 7.099a.098.098 0 01-.189 0l-2.152-7.1c-.016-.046-.047-.062-.094-.062h-4.006a.101.101 0 00-.095.094v18.125c0 .047.047.094.095.094h2.623a.101.101 0 00.094-.094V15.411c0-.11.158-.126.189-.032l2.168 7.147.157.502c.016.047.047.063.094.063h2.011a.106.106 0 00.094-.063l.158-.502 2.168-7.147c.031-.11.188-.078.188.032v13.774c0 .047.047.094.094.094h2.624a.101.101 0 00.094-.094V11.06a.101.101 0 00-.094-.094h-1.54zm73.745 0a.108.108 0 00-.095.063l-2.151 7.099a.098.098 0 01-.189 0l-2.152-7.1c-.016-.046-.047-.062-.094-.062h-3.991a.101.101 0 00-.094.094v18.125c0 .047.047.094.094.094h2.624a.101.101 0 00.094-.094V15.411c0-.11.158-.126.189-.032l2.167 7.147.157.502c.016.047.047.063.095.063h2.011c.047 0 .078-.031.094-.063l.157-.502 2.169-7.147c.031-.11.188-.078.188.032v13.774c0 .047.047.094.095.094h2.622c.048 0 .095-.047.095-.094V11.06c0-.047-.047-.094-.095-.094h-3.99zm-33.839 0H96.508a.101.101 0 00-.094.094v2.262c0 .047.047.094.094.094h4.792v15.77c0 .046.047.093.094.093h2.624a.101.101 0 00.094-.094V13.416h4.792a.101.101 0 00.094-.094V11.06c0-.047-.031-.094-.094-.094zm15.474 18.314h2.387c.063 0 .11-.063.094-.126l-4.933-18.188c-.015-.047-.047-.063-.094-.063h-3.425c-.047 0-.078.032-.094.063l-4.933 18.188c-.016.063.031.126.094.126h2.388a.108.108 0 00.095-.063l1.429-5.293c.016-.047.047-.063.094-.063h5.279c.048 0 .079.031.095.063l1.429 5.293c.016.031.063.063.095.063zm-6.269-8.01l1.916-7.084a.099.099 0 01.189 0l1.917 7.084c.015.062-.032.125-.095.125h-3.833a.1.1 0 01-.094-.125zm46.989 8.01h2.387c.063 0 .11-.063.095-.126l-4.933-18.188c-.016-.047-.047-.063-.094-.063h-3.425a.108.108 0 00-.095.063l-4.932 18.188c-.016.063.031.126.094.126h2.388c.048 0 .079-.032.095-.063l1.429-5.293c.016-.047.047-.063.094-.063h5.279c.047 0 .079.031.094.063l1.43 5.293a.105.105 0 00.094.063zm-6.269-8.01l1.917-7.084a.098.098 0 01.188 0l1.917 7.084a.1.1 0 01-.094.125h-3.834c-.062 0-.11-.063-.094-.125zm-77.544 5.324V20.97c0-.047.047-.095.094-.095h6.991a.101.101 0 00.094-.094V18.52a.101.101 0 00-.094-.094h-6.99a.101.101 0 01-.095-.094v-4.806c0-.047.047-.094.094-.094h7.95c.047 0 .094-.048.094-.095v-2.261a.102.102 0 00-.095-.095H78.567a.101.101 0 00-.094.095v18.109c0 .047.047.094.094.094h11.091a.102.102 0 00.095-.094v-2.387a.101.101 0 00-.095-.095h-8.295c-.047-.015-.078-.047-.078-.11zm125.603 2.528l-9.081-9.376a.096.096 0 010-.126l8.17-8.482a.09.09 0 00-.062-.157h-3.347c-.031 0-.047.016-.062.032l-6.929 7.193a.09.09 0 01-.157-.063v-7.067c0-.047-.047-.095-.094-.095h-2.624c-.047 0-.095.048-.095.095V29.2c0 .047.048.094.095.094h2.624a.101.101 0 00.094-.094v-7.979c0-.079.11-.126.157-.063l7.855 8.105a.119.119 0 00.063.031h3.346c.063-.016.11-.126.047-.173z" fill="#161616"/><path d="M39.856 1.212l-15.883 11.78 2.953-6.943 12.93-4.837z" fill="#E17726" stroke="#E17726" stroke-width=".25" stroke-linecap="round" stroke-linejoin="round"/><path d="M3.22 1.212l15.742 11.89-2.812-7.053L3.22 1.212zm30.918 27.313l-4.226 6.471 9.05 2.498 2.591-8.827-7.415-.142zm-32.598.142l2.576 8.827 9.033-2.498-4.21-6.47-7.4.14z" fill="#E27625" stroke="#E27625" stroke-width=".25" stroke-linecap="round" stroke-linejoin="round"/><path d="M12.662 17.594l-2.514 3.8 8.955.409-.298-9.66-6.143 5.45zm17.752 0l-6.237-5.56-.204 9.77 8.954-.409-2.513-3.8zM13.148 34.996l5.42-2.623-4.665-3.643-.755 6.266zm11.36-2.623l5.404 2.623-.738-6.267-4.666 3.644z" fill="#E27625" stroke="#E27625" stroke-width=".25" stroke-linecap="round" stroke-linejoin="round"/><path d="M29.912 34.997l-5.404-2.623.44 3.518-.047 1.492 5.011-2.387zm-16.764 0l5.028 2.387-.032-1.492.424-3.518-5.42 2.623z" fill="#D5BFB2" stroke="#D5BFB2" stroke-width=".25" stroke-linecap="round" stroke-linejoin="round"/><path d="M18.27 26.405l-4.493-1.32 3.174-1.46 1.32 2.78zm6.537 0l1.32-2.78 3.189 1.46-4.51 1.32z" fill="#233447" stroke="#233447" stroke-width=".25" stroke-linecap="round" stroke-linejoin="round"/><path d="M13.15 34.996l.785-6.47-4.996.14 4.21 6.33zm15.993-6.471l.77 6.471 4.225-6.33-4.995-.14zm3.784-7.13l-8.954.408.832 4.602 1.32-2.78 3.19 1.46 3.612-3.69zm-19.15 3.691l3.174-1.461 1.32 2.78.832-4.602-8.955-.409 3.63 3.692z" fill="#CC6228" stroke="#CC6228" stroke-width=".25" stroke-linecap="round" stroke-linejoin="round"/><path d="M10.148 21.395l3.755 7.334-.126-3.643-3.629-3.691zm19.167 3.691l-.141 3.643 3.755-7.334-3.614 3.69zm-10.211-3.283l-.832 4.602 1.052 5.434.236-7.162-.456-2.874zm4.869 0l-.44 2.858.22 7.178 1.053-5.434-.833-4.602z" fill="#E27525" stroke="#E27525" stroke-width=".25" stroke-linecap="round" stroke-linejoin="round"/><path d="M24.806 26.405l-1.052 5.435.754.534 4.666-3.644.141-3.644-4.509 1.32zm-11.029-1.319l.126 3.644 4.666 3.644.754-.534-1.053-5.435-4.493-1.32z" fill="#F5841F" stroke="#F5841F" stroke-width=".25" stroke-linecap="round" stroke-linejoin="round"/><path d="M24.9 37.383l.047-1.492-.409-.345h-6l-.394.345.032 1.492-5.028-2.387 1.76 1.445 3.566 2.466h6.111l3.582-2.466 1.744-1.445-5.011 2.387z" fill="#C0AC9D" stroke="#C0AC9D" stroke-width=".25" stroke-linecap="round" stroke-linejoin="round"/><path d="M24.507 32.374l-.754-.534h-4.43l-.754.534-.424 3.518.392-.346h6.002l.408.346-.44-3.518z" fill="#161616" stroke="#161616" stroke-width=".25" stroke-linecap="round" stroke-linejoin="round"/><path d="M40.532 13.761l1.336-6.502-2.011-6.047-15.35 11.387 5.908 4.995 8.342 2.434 1.838-2.152-.801-.58 1.272-1.163-.974-.754 1.273-.974-.833-.644zM1.209 7.259L2.56 13.76l-.864.644 1.288.974-.974.754 1.273 1.162-.801.581 1.838 2.152 8.342-2.434 5.907-4.995L3.219 1.212 1.21 7.259z" fill="#763E1A" stroke="#763E1A" stroke-width=".25" stroke-linecap="round" stroke-linejoin="round"/><path d="M38.757 20.028l-8.342-2.434 2.514 3.8-3.755 7.336 4.964-.063h7.416l-2.797-8.639zm-26.095-2.434L4.32 20.028l-2.78 8.639h7.399l4.964.063-3.755-7.335 2.514-3.801zm11.312 4.209l.534-9.204 2.42-6.55H16.15l2.42 6.55.534 9.204.204 2.89.016 7.147h4.43l.016-7.147.204-2.89z" fill="#F5841F" stroke="#F5841F" stroke-width=".25" stroke-linecap="round" stroke-linejoin="round"/></svg>