<svg width="204" height="56" fill="none" xmlns="http://www.w3.org/2000/svg"><path d="M69.727 36.556c-2.009 0-3.884-.448-5.58-1.344a10.578 10.578 0 01-4.018-3.808c-.982-1.657-1.473-3.494-1.473-5.51 0-2.016.491-3.853 1.473-5.466.982-1.612 2.322-2.867 4.018-3.808 1.696-.896 3.526-1.344 5.58-1.344 2.008 0 3.883.448 5.535 1.344 1.696.896 3.035 2.15 3.973 3.808.982 1.613 1.473 3.45 1.473 5.466s-.491 3.853-1.473 5.51c-.982 1.613-2.321 2.868-3.973 3.808-1.652.896-3.526 1.344-5.535 1.344zm0-4.614c1.696 0 3.08-.538 4.106-1.658 1.027-1.12 1.563-2.553 1.563-4.39 0-1.837-.536-3.315-1.563-4.39-1.026-1.12-2.365-1.658-4.106-1.658-1.741 0-3.125.538-4.152 1.613-1.026 1.075-1.517 2.553-1.517 4.39 0 1.837.49 3.315 1.517 4.39 1.027 1.165 2.41 1.703 4.152 1.703zm19.105-9.765c.491-.762 1.205-1.39 2.098-1.882.893-.493 1.964-.717 3.17-.717 1.428 0 2.678.358 3.839 1.03 1.16.672 2.053 1.658 2.678 2.957.669 1.3 1.027 2.778 1.027 4.48 0 1.703-.358 3.181-1.027 4.48-.67 1.3-1.563 2.285-2.678 3.002a7.463 7.463 0 01-3.84 1.03c-1.16 0-2.231-.224-3.169-.717-.893-.492-1.607-1.075-2.098-1.836v7.213H83.61V19.802h5.223v2.375zm7.455 5.868c0-1.254-.357-2.24-1.116-2.957-.714-.716-1.607-1.075-2.678-1.075-1.027 0-1.92.359-2.679 1.075-.714.717-1.071 1.748-1.071 3.002 0 1.255.357 2.24 1.071 3.002.714.716 1.607 1.075 2.679 1.075 1.026 0 1.919-.359 2.678-1.075.759-.762 1.116-1.747 1.116-3.047zm24.148-.225c0 .493-.045.986-.089 1.479h-11.83c.09 1.03.402 1.837 1.027 2.374.625.538 1.339.807 2.232.807 1.294 0 2.232-.538 2.723-1.613h5.58a6.861 6.861 0 01-1.563 2.912 7.616 7.616 0 01-2.767 2.06c-1.116.494-2.366.762-3.75.762-1.652 0-3.169-.358-4.464-1.03a7.168 7.168 0 01-3.035-2.957c-.714-1.299-1.116-2.777-1.116-4.48 0-1.702.357-3.225 1.071-4.48a7.165 7.165 0 013.036-2.957c1.294-.672 2.812-1.03 4.508-1.03 1.652 0 3.125.314 4.419.986a7.111 7.111 0 012.991 2.867c.67 1.21 1.027 2.643 1.027 4.3zm-5.357-1.343c0-.852-.312-1.568-.937-2.061-.625-.493-1.384-.762-2.277-.762-.893 0-1.607.269-2.232.762-.58.493-.937 1.21-1.116 2.105h6.562v-.044zm18.526-6.81c2.009 0 3.571.627 4.776 1.882 1.206 1.254 1.786 2.956 1.786 5.152v9.632h-5.178v-8.96c0-1.12-.313-1.972-.893-2.554-.58-.627-1.384-.896-2.366-.896-.982 0-1.785.314-2.366.896-.58.627-.892 1.478-.892 2.554v8.96h-5.268V19.8h5.223v2.196a5.425 5.425 0 012.143-1.703c.892-.403 1.919-.627 3.035-.627zm17.944 16.889c-1.562 0-2.99-.268-4.24-.761s-2.232-1.21-2.991-2.195c-.714-.986-1.116-2.15-1.161-3.495h5.58c.089.762.357 1.344.848 1.792.447.403 1.072.583 1.83.583.759 0 1.384-.18 1.831-.493.446-.359.669-.851.669-1.434 0-.493-.178-.94-.535-1.254-.358-.314-.804-.627-1.295-.807-.491-.224-1.25-.448-2.187-.761-1.384-.403-2.5-.807-3.393-1.255-.893-.403-1.651-1.03-2.276-1.836-.625-.807-.938-1.882-.938-3.181 0-1.927.714-3.45 2.187-4.525 1.429-1.12 3.348-1.658 5.67-1.658 2.365 0 4.285.538 5.713 1.658 1.429 1.075 2.232 2.598 2.322 4.57h-5.67c-.044-.672-.312-1.21-.758-1.568-.447-.404-1.072-.583-1.786-.583-.625 0-1.161.18-1.518.493-.401.314-.58.762-.58 1.389 0 .672.313 1.21.982 1.568.67.358 1.652.761 3.036 1.21 1.383.447 2.499.895 3.347 1.299.893.403 1.652 1.03 2.277 1.792.625.806.937 1.792.937 3.046 0 1.165-.312 2.24-.937 3.226-.625.985-1.518 1.747-2.678 2.33-1.25.582-2.634.85-4.286.85zm27.141-8.736c0 .493-.045.986-.089 1.479h-11.83c.089 1.03.402 1.837 1.027 2.374.625.538 1.339.807 2.232.807 1.294 0 2.232-.538 2.723-1.613h5.58a6.861 6.861 0 01-1.563 2.912 7.616 7.616 0 01-2.767 2.06c-1.116.494-2.366.762-3.75.762-1.652 0-3.169-.358-4.464-1.03a7.168 7.168 0 01-3.035-2.957c-.715-1.299-1.116-2.777-1.116-4.48 0-1.702.357-3.225 1.071-4.48a7.168 7.168 0 013.035-2.957c1.295-.672 2.813-1.03 4.509-1.03 1.652 0 3.125.314 4.419.986a7.111 7.111 0 012.991 2.867c.67 1.21 1.027 2.643 1.027 4.3zm-5.357-1.343c0-.852-.312-1.568-.937-2.061-.625-.493-1.384-.762-2.277-.762-.893 0-1.607.269-2.232.762-.58.493-.937 1.21-1.116 2.105h6.562v-.044zm7.098 1.568c0-1.702.312-3.18.982-4.48.669-1.299 1.562-2.285 2.723-2.957a7.46 7.46 0 013.839-1.03c1.205 0 2.232.224 3.169.717.937.493 1.607 1.075 2.098 1.881v-2.33h5.223v16.532h-5.223v-2.33c-.491.762-1.205 1.39-2.143 1.882-.892.493-1.964.717-3.169.717a7.417 7.417 0 01-3.794-1.03c-1.161-.717-2.054-1.703-2.723-3.002-.67-1.344-.982-2.867-.982-4.57zm12.766.045c0-1.254-.357-2.24-1.116-3.002-.714-.716-1.607-1.075-2.633-1.075-1.027 0-1.92.359-2.679 1.075-.714.717-1.071 1.703-1.071 2.957 0 1.255.357 2.285 1.071 3.002.715.717 1.607 1.075 2.679 1.075 1.026 0 1.919-.358 2.633-1.075.759-.672 1.116-1.703 1.116-2.957z" fill="#04111D"/><path d="M49.104 28.268c0 12.365-10 22.4-22.32 22.4s-22.32-10.035-22.32-22.4c0-12.365 10-22.4 22.32-22.4s22.32 10.035 22.32 22.4z" fill="#2081E2"/><path d="M15.49 29.03l.088-.134 5.803-9.094c.09-.134.268-.134.357.045.983 2.195 1.786 4.883 1.429 6.585-.179.717-.625 1.658-1.16 2.51a.978.978 0 01-.224.357c-.045.045-.09.09-.178.09h-5.982c-.134-.045-.223-.224-.134-.358z" fill="#fff"/><path d="M41.335 30.733v1.434c0 .09-.044.134-.134.179-.446.18-2.008.896-2.633 1.792-1.652 2.285-2.902 5.555-5.67 5.555h-11.65c-4.107 0-7.455-3.36-7.455-7.526v-.135c0-.09.09-.179.179-.179h6.561c.134 0 .224.134.224.224-.045.403.044.851.223 1.255a2.268 2.268 0 002.053 1.254h3.214v-2.509h-3.17c-.178 0-.267-.18-.178-.313a.616.616 0 00.134-.18c.313-.448.714-1.075 1.16-1.837.313-.492.581-1.075.804-1.612.045-.09.09-.18.134-.314.045-.18.134-.358.179-.493l.134-.403c.089-.448.134-.94.134-1.478 0-.18 0-.403-.045-.627 0-.224-.045-.448-.045-.672 0-.18-.044-.404-.089-.583a6.355 6.355 0 00-.178-.896l-.045-.09c-.045-.179-.09-.403-.179-.582a16.743 16.743 0 00-.625-1.792l-.267-.672a17.438 17.438 0 00-.402-.896c-.045-.134-.134-.224-.179-.358-.044-.135-.134-.27-.178-.404l-.134-.268-.402-.717c-.045-.09.045-.224.134-.18l2.455.673.313.09.357.089.134.045v-1.479c0-.716.58-1.299 1.25-1.299.357 0 .67.134.892.358.224.225.357.538.357.897v2.15l.268.09s.045 0 .045.044c.044.045.134.135.268.224.089.09.178.18.312.27.223.178.536.447.848.716.09.09.179.134.223.224.402.358.849.806 1.295 1.3.134.133.223.268.357.402.134.135.223.314.357.448.134.18.313.403.447.583.044.09.134.179.178.313.179.27.313.538.491.807.045.134.134.268.179.403.178.358.312.717.357 1.12.044.09.044.18.044.224.045.09.045.224.045.358.045.403 0 .762-.044 1.165-.045.18-.09.314-.134.493-.045.134-.09.314-.179.493a9.5 9.5 0 01-.491.94 4.12 4.12 0 01-.223.359c-.09.134-.179.224-.223.358-.09.135-.224.27-.313.403-.09.135-.178.27-.312.404-.134.179-.313.358-.447.537-.089.09-.178.224-.312.314-.09.09-.179.224-.313.314-.134.134-.268.268-.401.358l-.268.224c-.045.045-.09.045-.134.045h-1.964v2.508h2.455c.535 0 1.071-.179 1.473-.537.134-.134.759-.672 1.518-1.478.044-.045.044-.045.089-.045l6.785-1.972c.268-.134.357-.044.357.09z" fill="#fff"/></svg>