<svg width="20" height="18" fill="none" xmlns="http://www.w3.org/2000/svg"><path d="M18.544 1.714l.834-.055a.836.836 0 00-1.456-.504l.622.559zm-.386 3.623a.836.836 0 00-1.673 0h1.673zM9.999 6.428v.836h.836v-.836H10zM2.65 1.714l.783-.293a.836.836 0 00-1.53-.08l.747.373zm4.778 11.143l.591.59a.836.836 0 00-.326-1.383l-.265.793zm-6 2.326v-.836a.836.836 0 00-.465 1.532l.465-.696zM16.386 2.906l-.62.56.301.334.444-.068-.125-.826zm1.324-1.137c.062.941.002 1.484-.137 1.876-.134.376-.367.695-.83 1.139L17.9 5.99c.547-.524.99-1.059 1.249-1.786.252-.71.297-1.521.23-2.546l-1.67.11zm.448 4.46v-.842h-1.673v.842h1.673zm0-.842v-.05h-1.673v.05h1.673zm-8.995.184v.857h1.672v-.857H9.163zM13.704.878c-2.558 0-4.541 2.218-4.541 4.693h1.672c0-1.639 1.32-3.021 2.869-3.021V.878zm2.781 5.351c0 5.176-4.351 9.649-9.486 9.649v1.672c6.091 0 11.159-5.254 11.159-11.32h-1.673zM1.867 2.007C2.565 3.871 5.157 7.264 10 7.264V5.592c-3.96 0-6.04-2.77-6.566-4.171l-1.566.586zm.035-.667C.601 3.947.358 6.532 1.287 8.756c.93 2.223 2.962 3.921 5.876 4.894l.53-1.586C5.105 11.2 3.526 9.775 2.83 8.11c-.695-1.665-.575-3.732.568-6.024L1.902 1.34zm4.934 10.926c-.696.697-2.744 2.081-5.408 2.081v1.672c3.204 0 5.657-1.636 6.591-2.571l-1.183-1.182zm10.17-9.921A4.442 4.442 0 0013.704.878V2.55a2.77 2.77 0 012.062.917l1.24-1.122zm-.495 1.387c.985-.149 1.94-.664 2.655-1.459l-1.244-1.118c-.466.518-1.074.835-1.661.924l.25 1.653zM.963 15.88C2.978 17.224 4.92 17.55 7 17.55v-1.672c-1.872 0-3.454-.287-5.107-1.39l-.929 1.39z" fill="#171717"/></svg>