<svg width="24" height="18" viewBox="0 0 24 18" fill="none" xmlns="http://www.w3.org/2000/svg">
<g id="discord-6 1" clip-path="url(#clip0_154_1598)">
<path id="Vector" d="M19.9677 1.52483C22.5666 5.44425 23.8501 9.86526 23.3703 14.9548C23.3683 14.9764 23.3574 14.9962 23.3401 15.0091C21.372 16.4915 19.4651 17.3911 17.585 17.9876C17.5704 17.9922 17.5547 17.992 17.5402 17.9869C17.5257 17.9819 17.5131 17.9724 17.5042 17.9596C17.0698 17.3397 16.6752 16.6862 16.3294 15.9999C16.3096 15.9595 16.3277 15.9108 16.3685 15.8949C16.9953 15.6526 17.5914 15.3623 18.1647 15.0186C18.2098 14.9914 18.2127 14.925 18.171 14.8932C18.0493 14.8005 17.9288 14.7032 17.8134 14.6058C17.7919 14.5878 17.7628 14.5843 17.7384 14.5964C14.0164 16.3593 9.93918 16.3593 6.17321 14.5964C6.14876 14.5851 6.11971 14.589 6.09871 14.6067C5.98365 14.7041 5.86283 14.8005 5.74231 14.8932C5.7006 14.925 5.70405 14.9914 5.7495 15.0186C6.32279 15.3558 6.91881 15.6526 7.54475 15.896C7.58531 15.912 7.60458 15.9595 7.58444 15.9999C7.24616 16.6871 6.8515 17.3406 6.40909 17.9605C6.38982 17.9856 6.35817 17.9971 6.32826 17.9876C4.45707 17.3911 2.55021 16.4915 0.582075 15.0091C0.565679 14.9962 0.553885 14.9755 0.552159 14.954C0.151169 10.5515 0.968395 6.09395 3.95166 1.52395C3.95885 1.51185 3.96978 1.50241 3.98244 1.4968C5.45034 0.805799 7.02294 0.297431 8.6666 0.00710316C8.69652 0.00238238 8.72643 0.0165447 8.74197 0.0436892C8.94505 0.4125 9.17719 0.885462 9.33425 1.27198C11.0668 1.00053 12.8264 1.00053 14.5952 1.27198C14.7522 0.893724 14.9763 0.4125 15.1785 0.0436892C15.1857 0.0302231 15.1969 0.0194348 15.2104 0.0128645C15.224 0.00629419 15.2392 0.00427779 15.2539 0.00710316C16.8984 0.298316 18.471 0.806684 19.9378 1.4968C19.9507 1.50241 19.9613 1.51185 19.9677 1.52483V1.52483ZM10.215 9.89535C10.2332 8.5939 9.30807 7.51697 8.14681 7.51697C6.99504 7.51697 6.07886 8.58445 6.07886 9.89535C6.07886 11.206 7.01316 12.2734 8.14681 12.2734C9.29886 12.2734 10.215 11.206 10.215 9.89535V9.89535ZM17.8615 9.89535C17.8796 8.5939 16.9545 7.51697 15.7935 7.51697C14.6415 7.51697 13.7253 8.58445 13.7253 9.89535C13.7253 11.206 14.6596 12.2734 15.7935 12.2734C16.9545 12.2734 17.8615 11.206 17.8615 9.89535V9.89535Z" fill="#090909"/>
</g>
<defs>
<clipPath id="clip0_154_1598">
<rect width="24" height="18" fill="white"/>
</clipPath>
</defs>
</svg>
