<svg width="20" height="20" viewBox="0 0 20 20" fill="none" xmlns="http://www.w3.org/2000/svg">
<path d="M8.35351 2.96451C9.07104 1.6726 10.929 1.6726 11.6465 2.96451C12.0717 3.73012 12.9686 4.10161 13.8106 3.86092C15.2315 3.45477 16.5452 4.76852 16.1391 6.1894C15.8984 7.03145 16.2699 7.92829 17.0355 8.35351C18.3274 9.07104 18.3274 10.929 17.0355 11.6465C16.2699 12.0717 15.8984 12.9686 16.1391 13.8106C16.5452 15.2315 15.2315 16.5452 13.8106 16.1391C12.9686 15.8984 12.0717 16.2699 11.6465 17.0355C10.929 18.3274 9.07104 18.3274 8.35351 17.0355C7.92829 16.2699 7.03145 15.8984 6.1894 16.1391C4.76852 16.5452 3.45477 15.2315 3.86092 13.8106C4.10161 12.9686 3.73012 12.0717 2.96451 11.6465C1.6726 10.929 1.6726 9.07104 2.96451 8.35351C3.73012 7.92829 4.10161 7.03145 3.86092 6.1894C3.45477 4.76852 4.76852 3.45477 6.1894 3.86092C7.03145 4.10161 7.92829 3.73012 8.35351 2.96451Z" fill="#FED144"/>
<g clip-path="url(#clip0_1038_1246)">
<path d="M13.3335 7.14282L9.14304 12.3809L7.23828 9.99996" stroke="#451254" stroke-width="2" stroke-linecap="round" stroke-linejoin="round"/>
</g>
<defs>
<clipPath id="clip0_1038_1246">
<rect width="9.14286" height="11.4286" fill="white" transform="translate(5.71484 4.28564)"/>
</clipPath>
</defs>
</svg>
