<svg width="24" height="18" fill="none" xmlns="http://www.w3.org/2000/svg"><g clip-path="url(#clip0_154_1598)"><path d="M19.968 1.525c2.599 3.92 3.882 8.34 3.402 13.43a.076.076 0 01-.03.054 18.837 18.837 0 01-5.755 2.979.073.073 0 01-.08-.028A15.821 15.821 0 0116.328 16a.076.076 0 01.04-.105 11.64 11.64 0 001.796-.876.077.077 0 00.006-.126 9.22 9.22 0 01-.358-.287.069.069 0 00-.075-.01c-3.722 1.763-7.799 1.763-11.565 0a.07.07 0 00-.074.01 9.84 9.84 0 01-.357.287.077.077 0 00.008.126 12.37 12.37 0 001.795.877c.04.016.06.063.04.104a14.08 14.08 0 01-1.176 1.96.074.074 0 01-.08.028 18.9 18.9 0 01-5.747-2.979.08.08 0 01-.03-.055c-.4-4.402.416-8.86 3.4-13.43a.068.068 0 01.03-.027A18.59 18.59 0 018.667.007c.03-.005.06.01.075.037.203.368.435.841.592 1.228a17.095 17.095 0 015.261 0c.157-.378.381-.86.583-1.228a.07.07 0 01.075-.037c1.645.291 3.218.8 4.685 1.49a.059.059 0 01.03.028zm-9.753 8.37c.018-1.301-.907-2.378-2.068-2.378-1.152 0-2.068 1.067-2.068 2.378 0 1.311.934 2.378 2.068 2.378 1.152 0 2.068-1.067 2.068-2.378zm7.646 0c.019-1.301-.907-2.378-2.068-2.378-1.151 0-2.068 1.067-2.068 2.378 0 1.311.935 2.378 2.069 2.378 1.16 0 2.067-1.067 2.067-2.378z" fill="#090909"/></g><defs><clipPath id="clip0_154_1598"><path fill="#fff" d="M0 0h24v18H0z"/></clipPath></defs></svg>