<svg width="20" height="20" fill="none" xmlns="http://www.w3.org/2000/svg"><path d="M8.354 2.965c.717-1.292 2.575-1.292 3.293 0a1.883 1.883 0 002.164.896c1.42-.406 2.734.908 2.328 2.328-.24.842.13 1.74.896 2.165 1.292.717 1.292 2.575 0 3.293a1.883 1.883 0 00-.896 2.164c.406 1.42-.907 2.734-2.328 2.328a1.883 1.883 0 00-2.165.896c-.717 1.292-2.575 1.292-3.292 0a1.883 1.883 0 00-2.165-.896c-1.42.406-2.734-.907-2.328-2.328a1.883 1.883 0 00-.896-2.165c-1.292-.717-1.292-2.575 0-3.292a1.883 1.883 0 00.896-2.165c-.406-1.42.908-2.734 2.328-2.328.842.24 1.74-.13 2.165-.896z" fill="#FED144"/><g clip-path="url(#clip0_1038_1246)"><path d="M13.334 7.143L9.143 12.38 7.238 10" stroke="#451254" stroke-width="2" stroke-linecap="round" stroke-linejoin="round"/></g><defs><clipPath id="clip0_1038_1246"><path fill="#fff" transform="translate(5.715 4.286)" d="M0 0h9.143v11.429H0z"/></clipPath></defs></svg>