<svg width="20" height="16" fill="none" xmlns="http://www.w3.org/2000/svg"><g clip-path="url(#clip0_1038_872)"><path d="M16.64 1.355c2.165 3.484 3.235 7.414 2.835 11.938a.07.07 0 01-.025.048c-1.64 1.318-3.229 2.117-4.796 2.648a.057.057 0 01-.037 0 .063.063 0 01-.03-.025 14.291 14.291 0 01-.98-1.742c-.016-.036 0-.08.034-.094a9.443 9.443 0 001.496-.778.071.071 0 00.005-.112 7.815 7.815 0 01-.297-.255.055.055 0 00-.063-.009c-3.102 1.567-6.5 1.567-9.638 0a.056.056 0 00-.062.01 8.41 8.41 0 01-.297.254c-.035.028-.032.087.006.112.478.3.975.563 1.496.78.034.014.05.056.033.092a12.72 12.72 0 01-.98 1.743.058.058 0 01-.066.024c-1.56-.53-3.149-1.33-4.789-2.648a.073.073 0 01-.025-.049C.126 9.38.807 5.417 3.293 1.354a.058.058 0 01.026-.024A14.808 14.808 0 017.222.006a.06.06 0 01.063.033c.17.327.363.748.494 1.091a13.366 13.366 0 014.384 0c.13-.336.317-.764.486-1.091a.062.062 0 01.026-.028.055.055 0 01.037-.005c1.37.259 2.68.71 3.903 1.324a.05.05 0 01.025.025zm-8.127 7.44c.015-1.156-.756-2.114-1.724-2.114-.96 0-1.723.95-1.723 2.115 0 1.165.778 2.113 1.723 2.113.96 0 1.724-.948 1.724-2.113zm6.372 0c.015-1.156-.756-2.114-1.724-2.114-.96 0-1.723.95-1.723 2.115 0 1.165.778 2.113 1.723 2.113.968 0 1.724-.948 1.724-2.113z" fill="#090909"/></g><defs><clipPath id="clip0_1038_872"><path fill="#fff" d="M0 0h20v16H0z"/></clipPath></defs></svg>