<svg width="206" height="56" viewBox="0 0 206 56" fill="none" xmlns="http://www.w3.org/2000/svg">
<g clip-path="url(#clip0_154_1750)">
<path d="M10.8809 22.6488L18.8562 14.4926L26.8358 22.6531L31.4764 17.9071L18.8562 5L6.24023 17.9028L10.8809 22.6488Z" fill="#F3BA2F"/>
<path d="M7.60343 25.9998L2.96289 21.2539L-1.67788 26L2.96266 30.7459L7.60343 25.9998Z" fill="#F3BA2F"/>
<path d="M10.8818 29.3516L18.8572 37.5078L26.8364 29.3477L31.4796 34.091L31.4774 34.0936L18.8572 47.0004L6.24086 34.098L6.23438 34.0913L10.8818 29.3516Z" fill="#F3BA2F"/>
<path d="M34.7499 30.7481L39.3906 26.002L34.7501 21.256L30.1093 26.0022L34.7499 30.7481Z" fill="#F3BA2F"/>
<path d="M23.563 25.9976H23.5649L18.8559 21.1816L15.3758 24.7407H15.3755L14.9759 25.1497L14.151 25.9933L14.1445 25.9999L14.151 26.0069L18.8559 30.8186L23.5649 26.0026L23.5672 25.9999L23.563 25.9976Z" fill="#F3BA2F"/>
<path d="M46.625 15.1768H56.7181C59.2231 15.1768 61.1174 15.8342 62.4012 17.1492C63.3947 18.1676 63.8913 19.4298 63.8913 20.9355V20.9992C63.8913 21.6354 63.8145 22.1977 63.6597 22.6853C63.5053 23.1736 63.299 23.6132 63.0412 24.0056C62.784 24.3984 62.4849 24.743 62.145 25.0396C61.8047 25.3368 61.4392 25.5916 61.0477 25.8032C62.3068 26.2915 63.2981 26.954 64.0207 27.7919C64.7431 28.6302 65.1048 29.7916 65.1048 31.276V31.3394C65.1048 32.3578 64.9134 33.2485 64.5303 34.0124C64.1472 34.7757 63.5984 35.4123 62.8839 35.9215C62.1693 36.4307 61.3101 36.8122 60.3059 37.0669C59.3016 37.3214 58.1888 37.4484 56.9675 37.4484H46.625V15.1768ZM55.709 24.1808C56.7671 24.1808 57.6072 23.9957 58.229 23.6241C58.8511 23.2529 59.1622 22.6535 59.1622 21.8265V21.7628C59.1622 21.0208 58.8923 20.4535 58.3532 20.0607C57.8138 19.6683 57.036 19.4719 56.0201 19.4719H51.2912V24.1808H55.709V24.1808ZM56.9847 33.1536C58.0425 33.1536 58.8715 32.9579 59.4735 32.5651C60.0749 32.1727 60.3759 31.5626 60.3759 30.7353V30.672C60.3759 29.9296 60.0957 29.3411 59.5358 28.9058C58.9757 28.4716 58.0736 28.254 56.829 28.254H51.2912V33.1539H56.9847V33.1536Z" fill="#F3BA2F"/>
<path d="M71.1152 15.1768H75.9067V37.4491H71.1152V15.1768Z" fill="#F3BA2F"/>
<path d="M83.1641 15.1768H87.5812L97.7859 28.8903V15.1768H102.515V37.4491H98.4395L87.8926 23.2904V37.4491H83.1641V15.1768Z" fill="#F3BA2F"/>
<path d="M117.02 15.0176H121.437L130.771 37.4488H125.762L123.771 32.4537H114.562L112.571 37.4488H107.686L117.02 15.0176ZM122.06 28.126L119.166 20.9037L116.273 28.126H122.06Z" fill="#F3BA2F"/>
<path d="M135.943 15.1768H140.361L150.566 28.8903V15.1768H155.294V37.4491H151.219L140.672 23.2904V37.4491H135.943V15.1768V15.1768Z" fill="#F3BA2F"/>
<path d="M172.538 37.8306C170.94 37.8306 169.458 37.5333 168.089 36.9399C166.72 36.3464 165.538 35.5347 164.542 34.5057C163.547 33.477 162.768 32.2625 162.209 30.8627C161.649 29.4625 161.369 27.967 161.369 26.3761V26.3127C161.369 24.7218 161.649 23.232 162.209 21.8424C162.769 20.4532 163.547 19.2334 164.542 18.1835C165.537 17.1336 166.73 16.3059 168.12 15.7015C169.509 15.0971 171.045 14.7949 172.725 14.7949C173.74 14.7949 174.668 14.8802 175.508 15.0494C176.348 15.2195 177.11 15.4524 177.795 15.7493C178.48 16.0465 179.112 16.4071 179.694 16.831C180.273 17.2557 180.813 17.7221 181.311 18.2313L178.262 21.8265C177.411 21.042 176.546 20.4263 175.664 19.9811C174.782 19.5359 173.792 19.313 172.693 19.313C171.78 19.313 170.935 19.4935 170.158 19.8541C169.38 20.2146 168.711 20.7129 168.151 21.3491C167.591 21.9854 167.156 22.7228 166.844 23.5604C166.534 24.3987 166.378 25.2947 166.378 26.249V26.3124C166.378 27.2668 166.534 28.1687 166.844 29.0166C167.156 29.8655 167.585 30.6076 168.136 31.2438C168.685 31.8801 169.349 32.3843 170.126 32.7555C170.905 33.127 171.76 33.3121 172.693 33.3121C173.938 33.3121 174.99 33.0789 175.851 32.6122C176.711 32.1461 177.567 31.5095 178.417 30.7031L181.466 33.8532C180.906 34.4685 180.325 35.0202 179.724 35.5075C179.123 35.9958 178.464 36.4144 177.748 36.7647C177.033 37.1144 176.249 37.3801 175.4 37.5599C174.549 37.74 173.595 37.8306 172.538 37.8306Z" fill="#F3BA2F"/>
<path d="M187.105 15.1768H203.501V19.536H191.835V24.054H202.101V28.4129H191.835V33.0902H203.657V37.4491H187.105V15.1768Z" fill="#F3BA2F"/>
</g>
<defs>
<clipPath id="clip0_154_1750">
<rect width="205" height="56" fill="white" transform="translate(0.5)"/>
</clipPath>
</defs>
</svg>
