<svg width="184" height="56" viewBox="0 0 184 56" fill="none" xmlns="http://www.w3.org/2000/svg">
<path fill-rule="evenodd" clip-rule="evenodd" d="M11.9971 47.9596C5.98199 47.9596 0.117188 43.6529 0.117188 33.8885C0.117188 24.1237 5.98199 19.8672 11.9971 19.8672C14.9548 19.8672 17.2607 20.6186 18.9147 21.7202L17.11 25.6761C16.0073 24.8748 14.3532 24.3742 12.6991 24.3742C9.08997 24.3742 5.78146 27.2285 5.78146 33.8383C5.78146 40.4481 9.19007 43.3526 12.6991 43.3526C14.3532 43.3526 16.0073 42.8516 17.11 42.0507L18.9147 46.1066C17.2104 47.2583 14.9548 47.9596 11.9971 47.9596Z" fill="#0081C9"/>
<path fill-rule="evenodd" clip-rule="evenodd" d="M32.7002 47.9596C25.031 47.9596 20.8203 41.9002 20.8203 33.8885C20.8203 25.8764 25.031 19.8672 32.7002 19.8672C40.3698 19.8672 44.5805 25.8764 44.5805 33.8885C44.5805 41.9002 40.3698 47.9596 32.7002 47.9596ZM32.7002 24.2237C28.4396 24.2237 26.3343 28.0294 26.3343 33.8383C26.3343 39.6469 28.4396 43.5027 32.7002 43.5027C36.9611 43.5027 39.0665 39.6469 39.0665 33.8383C39.0665 28.0294 36.9611 24.2237 32.7002 24.2237Z" fill="#0081C9"/>
<path fill-rule="evenodd" clip-rule="evenodd" d="M51.9477 15.511C50.1433 15.511 48.6895 14.1091 48.6895 12.4065C48.6895 10.704 50.1433 9.30176 51.9477 9.30176C53.7522 9.30176 55.206 10.704 55.206 12.4065C55.206 14.1091 53.7522 15.511 51.9477 15.511ZM49.1909 20.4186H54.7049V47.4091H49.1909V20.4186Z" fill="#0081C9"/>
<path fill-rule="evenodd" clip-rule="evenodd" d="M76.4109 47.4085V29.3815C76.4109 26.2269 74.5061 24.2739 70.7467 24.2739C68.7417 24.2739 66.8868 24.6243 65.7841 25.0751V47.4085H60.3203V21.77C63.0272 20.6685 66.4861 19.8672 70.6965 19.8672C78.2659 19.8672 81.9249 23.1723 81.9249 28.8808V47.4085H76.4109Z" fill="#0081C9"/>
<path fill-rule="evenodd" clip-rule="evenodd" d="M96.4596 47.9596C92.9506 47.9596 89.4921 47.1082 87.3867 46.0568V8.09961H92.8505V21.1193C94.1537 20.5183 96.2591 20.0177 98.1137 20.0177C105.082 20.0177 109.793 25.025 109.793 33.2875C109.793 43.4526 104.53 47.9596 96.4596 47.9596ZM97.1613 24.2739C95.6575 24.2739 93.903 24.6244 92.8505 25.1755V42.9018C93.6526 43.2523 95.2066 43.6028 96.7602 43.6028C101.121 43.6028 104.33 40.5983 104.33 33.6882C104.33 27.7793 101.522 24.2739 97.1613 24.2739Z" fill="#0081C9"/>
<path fill-rule="evenodd" clip-rule="evenodd" d="M124.681 47.9596C116.912 47.9596 113.002 44.8046 113.002 39.4967C113.002 31.9856 121.022 30.6335 129.193 30.1827V28.4802C129.193 25.0751 126.937 23.8732 123.478 23.8732C120.922 23.8732 117.814 24.6745 116.01 25.5259L114.606 21.77C116.761 20.8186 120.42 19.8672 124.03 19.8672C130.496 19.8672 134.406 22.371 134.406 29.031V46.0567C132.451 47.1081 128.491 47.9596 124.681 47.9596ZM129.193 33.8383C123.679 34.1386 118.165 34.5894 118.165 39.3967C118.165 42.2507 120.371 44.0034 124.531 44.0034C126.286 44.0034 128.341 43.7031 129.193 43.3024V33.8383Z" fill="#0081C9"/>
<path fill-rule="evenodd" clip-rule="evenodd" d="M146.738 47.9596C143.58 47.9596 140.271 47.1081 138.316 46.0567L140.171 41.8504C141.574 42.7015 144.532 43.6027 146.587 43.6027C149.545 43.6027 151.5 42.1507 151.5 39.8973C151.5 37.4437 149.444 36.4923 146.688 35.4907C143.078 34.1386 139.018 32.4862 139.018 27.4288C139.018 22.9719 142.477 19.8672 148.492 19.8672C151.75 19.8672 154.457 20.6685 156.362 21.77L154.657 25.5758C153.455 24.8246 151.049 23.9735 149.094 23.9735C146.236 23.9735 144.632 25.4758 144.632 27.4288C144.632 29.8824 146.637 30.7335 149.294 31.7351C153.054 33.1373 157.214 34.6894 157.214 39.9475C157.214 44.8046 153.505 47.9596 146.738 47.9596Z" fill="#0081C9"/>
<path fill-rule="evenodd" clip-rule="evenodd" d="M183.881 33.7881L165.936 36.292C166.487 41.1491 169.645 43.6027 174.207 43.6027C176.914 43.6027 179.821 42.9519 181.676 41.9504L183.28 46.0567C181.175 47.1583 177.565 47.9596 173.856 47.9596C165.334 47.9596 160.572 42.5012 160.572 33.8885C160.572 25.6259 165.184 19.8672 172.753 19.8672C179.771 19.8672 183.931 24.4742 183.931 31.7351C183.931 32.3859 183.931 33.0872 183.881 33.7881ZM172.653 23.8732C168.442 23.8732 165.686 27.0783 165.585 32.6866L178.668 30.8837C178.618 26.1767 176.262 23.8732 172.653 23.8732Z" fill="#0081C9"/>
</svg>
