<svg width="166" height="56" viewBox="0 0 166 56" fill="none" xmlns="http://www.w3.org/2000/svg">
<path fill-rule="evenodd" clip-rule="evenodd" d="M135.463 12.1618V38.0715C135.44 38.4836 135.6 38.8956 135.875 39.2107C136.15 39.5258 136.539 39.6954 136.929 39.6954H137.364C137.776 39.6954 138.165 39.5258 138.44 39.2107C138.715 38.8956 138.875 38.4836 138.875 38.0715V12.1618H141.715V38.7502C141.715 40.7619 140.204 42.3858 138.303 42.4342H136.127C135.188 42.4342 134.295 42.0707 133.631 41.3678C132.966 40.6649 132.6 39.7439 132.6 38.7502V12.1618H135.463ZM155.663 11.8709C157.564 11.9194 159.099 13.8099 159.099 15.8458V18.2453C159.099 18.5847 158.893 18.8755 158.572 18.9725L156.213 19.6754V16.2336C156.213 15.3611 155.526 14.634 154.701 14.634C153.877 14.634 153.19 15.3369 153.19 16.2336V19.0937C153.19 20.863 154.427 23.1171 154.427 23.1171L157.816 30.0247C159.19 32.7635 159.076 34.7752 159.076 34.7752V38.6047C159.076 39.5985 158.709 40.568 158.045 41.2951C157.381 42.0222 156.465 42.41 155.503 42.4342H153.717C151.793 42.3131 150.281 40.6407 150.281 38.6047V34.3147C150.281 33.9754 150.487 33.6846 150.808 33.5876L153.167 32.8847V38.12C153.167 38.9925 153.854 39.6954 154.701 39.6954C155.526 39.6954 156.213 38.9683 156.19 38.0715V34.654C156.19 32.909 154.953 30.5822 154.953 30.5822L151.61 23.6745C150.235 20.9357 150.35 18.924 150.35 18.924V15.8458C150.35 13.7614 151.93 11.8709 153.923 11.8709H155.663ZM102.047 11.8709C103.971 11.9679 105.483 13.6645 105.483 15.7004V38.7017C105.46 40.7134 103.948 42.3615 102.047 42.4585H99.8716C97.9248 42.4342 96.3445 40.7619 96.3216 38.7017V15.6762C96.3216 14.6825 96.6881 13.713 97.3522 12.9858C98.0164 12.2587 98.9326 11.8709 99.8945 11.8467L102.047 11.8709ZM69.4105 12.1618L68.7234 14.6825C68.6318 15.0218 68.357 15.2399 68.0364 15.2399H63.4786V24.8864H68.1967L67.5096 27.4071C67.418 27.7222 67.1431 27.9645 66.8225 27.9645H63.4786V39.0895H69.4105L68.7463 41.5859C68.6547 41.9253 68.3799 42.1434 68.0593 42.1434H60.6387V12.1618H69.4105ZM120.049 12.1618C122.019 12.186 123.576 13.8584 123.576 15.9186V38.3624C123.576 40.4225 121.996 42.1192 120.049 42.1192H114.552V12.1618H120.049ZM82.6256 21.8082L85.2365 12.1618H88.1452L84.0914 27.1647L88.1681 42.1676H85.2594L82.6256 32.4969L80.0146 42.1434H77.106L81.1598 27.1647L77.0831 12.1618H79.9917L82.6256 21.8082ZM101.085 39.7439C101.498 39.7439 101.887 39.55 102.162 39.2349C102.437 38.9198 102.597 38.5078 102.574 38.0715V16.2336C102.597 15.7974 102.437 15.3853 102.162 15.0703C101.887 14.7552 101.498 14.5855 101.085 14.5613H100.65C99.8029 14.6097 99.1387 15.3369 99.1387 16.2336V38.0715C99.1387 38.9683 99.8029 39.6954 100.65 39.7439H101.085ZM119.248 39.1137C120.049 39.1137 120.759 38.6775 120.759 37.5141V16.7911C120.759 15.6762 120.049 15.2399 119.248 15.2399H117.392V39.1137H119.248Z" fill="#252133"/>
<path d="M34.1175 27.2377L46.0271 39.8411H41.8129C41.1029 39.8411 40.3929 39.5261 39.889 38.9928L28.8269 27.2377L39.9348 15.4583C40.4387 14.9251 41.1258 14.61 41.8587 14.6343H46.0271L34.1175 27.2377ZM12.2909 15.4583C11.787 14.9251 11.0999 14.61 10.367 14.6343H6.17578L18.0854 27.2377L6.17578 39.8411H10.3899C11.0999 39.8411 11.8099 39.5261 12.3138 38.9928L23.3989 27.2135L12.2909 15.4583ZM26.1014 30.122L14.9705 41.8771C14.4667 42.4103 14.1918 43.1374 14.1918 43.913V48.3485L26.1014 35.745L38.011 48.3485V43.8888C38.011 43.1374 37.7362 42.3861 37.2323 41.8528L26.1014 30.122ZM26.1014 24.3535L37.2323 12.5983C37.7362 12.0651 38.011 11.338 38.011 10.5624V6.12695L26.1014 18.7304L14.1918 6.12695V10.5624C14.1918 11.3138 14.4667 12.0651 14.9705 12.5983L26.1014 24.3535Z" fill="url(#paint0_linear_154_1727)"/>
<defs>
<linearGradient id="paint0_linear_154_1727" x1="6.16249" y1="27.2332" x2="31.3601" y2="27.2332" gradientUnits="userSpaceOnUse">
<stop stop-color="#00BFFF"/>
<stop offset="1" stop-color="#6619FF"/>
</linearGradient>
</defs>
</svg>
