<svg width="208" height="40" viewBox="0 0 208 40" fill="none" xmlns="http://www.w3.org/2000/svg">
<path d="M182.914 20.1695C181.845 19.4628 180.667 18.9602 179.552 18.332C178.829 17.9236 178.059 17.5623 177.431 17.044C176.362 16.1645 176.582 14.4368 177.699 13.6829C179.301 12.6149 181.955 13.2116 182.238 15.3949C182.238 15.4419 182.285 15.4734 182.333 15.4734H184.752C184.815 15.4734 184.863 15.4263 184.847 15.3635C184.721 13.8556 184.139 12.5991 183.072 11.7981C182.05 11.0285 180.888 10.6201 179.646 10.6201C173.252 10.6201 172.67 17.3895 176.111 19.5257C176.504 19.7769 179.881 21.4732 181.076 22.2114C182.27 22.9495 182.647 24.3003 182.128 25.3683C181.657 26.3422 180.432 27.0175 179.207 26.939C177.87 26.8605 176.834 26.138 176.472 25.0071C176.409 24.803 176.378 24.4103 176.378 24.2375C176.378 24.1904 176.331 24.1432 176.284 24.1432H173.661C173.614 24.1432 173.566 24.1904 173.566 24.2375C173.566 26.138 174.038 27.1903 175.326 28.1485C176.535 29.0594 177.855 29.4363 179.222 29.4363C182.804 29.4363 184.658 27.4102 185.034 25.3055C185.364 23.248 184.752 21.3946 182.914 20.1695Z" fill="#161616"/>
<path d="M68.9984 10.9658H67.8359H66.5633C66.5162 10.9658 66.4847 10.9972 66.469 11.0286L64.3168 18.1279C64.2854 18.2222 64.1597 18.2222 64.1283 18.1279L61.976 11.0286C61.9602 10.9815 61.9288 10.9658 61.8816 10.9658H60.6092H59.4466H57.8756C57.8284 10.9658 57.7812 11.0129 57.7812 11.0601V29.1852C57.7812 29.2323 57.8284 29.2794 57.8756 29.2794H60.4992C60.5463 29.2794 60.5935 29.2323 60.5935 29.1852V15.4107C60.5935 15.3008 60.7506 15.2851 60.782 15.3793L62.9499 22.5257L63.107 23.0283C63.1227 23.0754 63.1542 23.0912 63.2013 23.0912H65.2123C65.2593 23.0912 65.2908 23.0597 65.3065 23.0283L65.4636 22.5257L67.6316 15.3793C67.6631 15.2694 67.8202 15.3008 67.8202 15.4107V29.1852C67.8202 29.2323 67.8673 29.2794 67.9144 29.2794H70.5381C70.5851 29.2794 70.6323 29.2323 70.6323 29.1852V11.0601C70.6323 11.0129 70.5851 10.9658 70.5381 10.9658H68.9984Z" fill="#161616"/>
<path d="M142.743 10.9658C142.696 10.9658 142.664 10.9972 142.648 11.0286L140.497 18.1279C140.466 18.2222 140.34 18.2222 140.308 18.1279L138.156 11.0286C138.14 10.9815 138.109 10.9658 138.062 10.9658H134.071C134.024 10.9658 133.977 11.0129 133.977 11.0601V29.1852C133.977 29.2323 134.024 29.2794 134.071 29.2794H136.695C136.742 29.2794 136.789 29.2323 136.789 29.1852V15.4107C136.789 15.3008 136.947 15.2851 136.978 15.3793L139.145 22.5257L139.302 23.0283C139.318 23.0754 139.349 23.0912 139.397 23.0912H141.408C141.455 23.0912 141.486 23.0597 141.502 23.0283L141.659 22.5257L143.828 15.3793C143.859 15.2694 144.016 15.3008 144.016 15.4107V29.1852C144.016 29.2323 144.063 29.2794 144.111 29.2794H146.733C146.781 29.2794 146.828 29.2323 146.828 29.1852V11.0601C146.828 11.0129 146.781 10.9658 146.733 10.9658H142.743Z" fill="#161616"/>
<path d="M108.904 10.9658H104.018H101.394H96.5084C96.4612 10.9658 96.4141 11.0129 96.4141 11.0601V13.3217C96.4141 13.3689 96.4612 13.416 96.5084 13.416H101.3V29.1852C101.3 29.2323 101.347 29.2794 101.394 29.2794H104.018C104.065 29.2794 104.112 29.2323 104.112 29.1852V13.416H108.904C108.951 13.416 108.998 13.3689 108.998 13.3217V11.0601C108.998 11.0129 108.967 10.9658 108.904 10.9658Z" fill="#161616"/>
<path d="M124.378 29.2797H126.765C126.828 29.2797 126.875 29.2169 126.859 29.1541L121.926 10.9661C121.911 10.919 121.879 10.9033 121.832 10.9033H120.921H119.319H118.407C118.36 10.9033 118.329 10.9347 118.313 10.9661L113.38 29.1541C113.364 29.2169 113.411 29.2797 113.474 29.2797H115.862C115.909 29.2797 115.941 29.2483 115.957 29.2169L117.386 23.9238C117.402 23.8768 117.433 23.8611 117.48 23.8611H122.759C122.807 23.8611 122.838 23.8924 122.854 23.9238L124.283 29.2169C124.299 29.2483 124.346 29.2797 124.378 29.2797ZM118.109 21.2695L120.025 14.1859C120.057 14.0917 120.183 14.0917 120.214 14.1859L122.131 21.2695C122.146 21.3323 122.099 21.3951 122.036 21.3951H118.203C118.14 21.3951 118.093 21.3323 118.109 21.2695Z" fill="#161616"/>
<path d="M165.098 29.2797H167.485C167.548 29.2797 167.595 29.2169 167.58 29.1541L162.647 10.9661C162.631 10.919 162.6 10.9033 162.553 10.9033H161.642H160.04H159.128C159.081 10.9033 159.049 10.9347 159.033 10.9661L154.101 29.1541C154.085 29.2169 154.132 29.2797 154.195 29.2797H156.583C156.631 29.2797 156.662 29.2483 156.678 29.2169L158.107 23.9238C158.123 23.8768 158.154 23.8611 158.201 23.8611H163.48C163.527 23.8611 163.559 23.8924 163.574 23.9238L165.004 29.2169C165.019 29.2483 165.051 29.2797 165.098 29.2797ZM158.829 21.2695L160.746 14.1859C160.777 14.0917 160.903 14.0917 160.934 14.1859L162.851 21.2695C162.867 21.3323 162.82 21.3951 162.757 21.3951H158.923C158.861 21.3951 158.813 21.3323 158.829 21.2695Z" fill="#161616"/>
<path d="M81.2848 26.5936V20.9706C81.2848 20.9236 81.3319 20.8765 81.3791 20.8765H88.3701C88.4172 20.8765 88.4644 20.8293 88.4644 20.7822V18.5205C88.4644 18.4734 88.4172 18.4263 88.3701 18.4263H81.3791C81.3319 18.4263 81.2848 18.3791 81.2848 18.332V13.5259C81.2848 13.4788 81.3319 13.4316 81.3791 13.4316H89.3284C89.3756 13.4316 89.4228 13.3845 89.4228 13.3374V11.0757C89.4228 11.0286 89.3756 10.9814 89.3284 10.9814H81.2848H78.567C78.5198 10.9814 78.4727 11.0286 78.4727 11.0757V13.4316V18.4419V20.8922V26.7035V29.1851C78.4727 29.2322 78.5198 29.2794 78.567 29.2794H81.2848H89.6583C89.7055 29.2794 89.7527 29.2322 89.7527 29.1851V26.7978C89.7527 26.7506 89.7055 26.7035 89.6583 26.7035H81.3634C81.3162 26.6879 81.2848 26.6563 81.2848 26.5936Z" fill="#161616"/>
<path d="M206.888 29.1223L197.807 19.7456C197.776 19.7142 197.776 19.6514 197.807 19.62L205.977 11.1385C206.04 11.0757 205.993 10.9814 205.915 10.9814H202.568C202.537 10.9814 202.521 10.9972 202.506 11.0129L195.577 18.2064C195.515 18.2692 195.42 18.222 195.42 18.1435V11.0757C195.42 11.0286 195.373 10.9814 195.326 10.9814H192.702C192.655 10.9814 192.607 11.0286 192.607 11.0757V29.2008C192.607 29.248 192.655 29.2951 192.702 29.2951H195.326C195.373 29.2951 195.42 29.248 195.42 29.2008V21.222C195.42 21.1435 195.53 21.0963 195.577 21.1591L203.432 29.2636C203.448 29.2794 203.479 29.2951 203.495 29.2951H206.841C206.904 29.2794 206.951 29.1694 206.888 29.1223Z" fill="#161616"/>
<path d="M39.8558 1.21191L23.9727 12.9917L26.9263 6.04948L39.8558 1.21191Z" fill="#E17726" stroke="#E17726" stroke-width="0.25" stroke-linecap="round" stroke-linejoin="round"/>
<path d="M3.2207 1.21191L18.9624 13.1016L16.1503 6.04947L3.2207 1.21191Z" fill="#E27625" stroke="#E27625" stroke-width="0.25" stroke-linecap="round" stroke-linejoin="round"/>
<path d="M34.1381 28.5254L29.9121 34.9964L38.9612 37.4938L41.5535 28.6668L34.1381 28.5254Z" fill="#E27625" stroke="#E27625" stroke-width="0.25" stroke-linecap="round" stroke-linejoin="round"/>
<path d="M1.53906 28.6668L4.11553 37.4938L13.149 34.9964L8.93858 28.5254L1.53906 28.6668Z" fill="#E27625" stroke="#E27625" stroke-width="0.25" stroke-linecap="round" stroke-linejoin="round"/>
<path d="M12.662 17.5936L10.1484 21.3946L19.1033 21.8029L18.8048 12.1436L12.662 17.5936Z" fill="#E27625" stroke="#E27625" stroke-width="0.25" stroke-linecap="round" stroke-linejoin="round"/>
<path d="M30.4138 17.5942L24.1769 12.0342L23.9727 21.8035L32.9274 21.3952L30.4138 17.5942Z" fill="#E27625" stroke="#E27625" stroke-width="0.25" stroke-linecap="round" stroke-linejoin="round"/>
<path d="M13.1484 34.9963L18.5684 32.3734L13.9026 28.7295L13.1484 34.9963Z" fill="#E27625" stroke="#E27625" stroke-width="0.25" stroke-linecap="round" stroke-linejoin="round"/>
<path d="M24.5078 32.3734L29.9121 34.9963L29.1737 28.7295L24.5078 32.3734Z" fill="#E27625" stroke="#E27625" stroke-width="0.25" stroke-linecap="round" stroke-linejoin="round"/>
<path d="M29.9121 34.9969L24.5078 32.374L24.9476 35.8922L24.9005 37.3843L29.9121 34.9969Z" fill="#D5BFB2" stroke="#D5BFB2" stroke-width="0.25" stroke-linecap="round" stroke-linejoin="round"/>
<path d="M13.1484 34.9969L18.1758 37.3843L18.1443 35.8922L18.5684 32.374L13.1484 34.9969Z" fill="#D5BFB2" stroke="#D5BFB2" stroke-width="0.25" stroke-linecap="round" stroke-linejoin="round"/>
<path d="M18.2705 26.405L13.7773 25.0857L16.9508 23.625L18.2705 26.405Z" fill="#233447" stroke="#233447" stroke-width="0.25" stroke-linecap="round" stroke-linejoin="round"/>
<path d="M24.8066 26.405L26.1264 23.625L29.3155 25.0857L24.8066 26.405Z" fill="#233447" stroke="#233447" stroke-width="0.25" stroke-linecap="round" stroke-linejoin="round"/>
<path d="M13.1498 34.9964L13.9353 28.5254L8.93945 28.6668L13.1498 34.9964Z" fill="#CC6228" stroke="#CC6228" stroke-width="0.25" stroke-linecap="round" stroke-linejoin="round"/>
<path d="M29.1426 28.5254L29.9124 34.9964L34.1384 28.6668L29.1426 28.5254Z" fill="#CC6228" stroke="#CC6228" stroke-width="0.25" stroke-linecap="round" stroke-linejoin="round"/>
<path d="M32.9274 21.3945L23.9727 21.8029L24.8053 26.405L26.125 23.6248L29.3141 25.0856L32.9274 21.3945Z" fill="#CC6228" stroke="#CC6228" stroke-width="0.25" stroke-linecap="round" stroke-linejoin="round"/>
<path d="M13.7775 25.0856L16.9509 23.6248L18.2707 26.405L19.1033 21.8029L10.1484 21.3945L13.7775 25.0856Z" fill="#CC6228" stroke="#CC6228" stroke-width="0.25" stroke-linecap="round" stroke-linejoin="round"/>
<path d="M10.1484 21.3945L13.9032 28.7294L13.7774 25.0856L10.1484 21.3945Z" fill="#E27525" stroke="#E27525" stroke-width="0.25" stroke-linecap="round" stroke-linejoin="round"/>
<path d="M29.3152 25.0856L29.1738 28.7294L32.9286 21.3945L29.3152 25.0856Z" fill="#E27525" stroke="#E27525" stroke-width="0.25" stroke-linecap="round" stroke-linejoin="round"/>
<path d="M19.1042 21.8027L18.2715 26.4048L19.3241 31.8391L19.5598 24.677L19.1042 21.8027Z" fill="#E27525" stroke="#E27525" stroke-width="0.25" stroke-linecap="round" stroke-linejoin="round"/>
<path d="M23.9731 21.8027L23.5332 24.6614L23.7532 31.8391L24.8058 26.4048L23.9731 21.8027Z" fill="#E27525" stroke="#E27525" stroke-width="0.25" stroke-linecap="round" stroke-linejoin="round"/>
<path d="M24.8065 26.4053L23.7539 31.8396L24.508 32.3737L29.174 28.7298L29.3154 25.0859L24.8065 26.4053Z" fill="#F5841F" stroke="#F5841F" stroke-width="0.25" stroke-linecap="round" stroke-linejoin="round"/>
<path d="M13.7773 25.0859L13.9031 28.7298L18.569 32.3737L19.3231 31.8396L18.2705 26.4053L13.7773 25.0859Z" fill="#F5841F" stroke="#F5841F" stroke-width="0.25" stroke-linecap="round" stroke-linejoin="round"/>
<path d="M24.8997 37.3835L24.9468 35.8914L24.5384 35.5458H18.5371L18.1443 35.8914L18.1758 37.3835L13.1484 34.9961L14.908 36.4411L18.4742 38.907H24.5854L28.1674 36.4411L29.9112 34.9961L24.8997 37.3835Z" fill="#C0AC9D" stroke="#C0AC9D" stroke-width="0.25" stroke-linecap="round" stroke-linejoin="round"/>
<path d="M24.5072 32.3738L23.753 31.8398H19.3228L18.5688 32.3738L18.1445 35.8921L18.5373 35.5465H24.5386L24.9471 35.8921L24.5072 32.3738Z" fill="#161616" stroke="#161616" stroke-width="0.25" stroke-linecap="round" stroke-linejoin="round"/>
<path d="M40.5322 13.7612L41.8676 7.25886L39.8566 1.21191L24.5078 12.5991L30.4148 17.5936L38.7569 20.0282L40.595 17.8764L39.7939 17.2952L41.0663 16.133L40.0923 15.3791L41.3649 14.4052L40.5322 13.7612Z" fill="#763E1A" stroke="#763E1A" stroke-width="0.25" stroke-linecap="round" stroke-linejoin="round"/>
<path d="M1.20898 7.25886L2.56007 13.7612L1.69601 14.4052L2.98424 15.3791L2.01021 16.133L3.28273 17.2952L2.48151 17.8764L4.31961 20.0282L12.6618 17.5936L18.5688 12.5991L3.2199 1.21191L1.20898 7.25886Z" fill="#763E1A" stroke="#763E1A" stroke-width="0.25" stroke-linecap="round" stroke-linejoin="round"/>
<path d="M38.7571 20.0282L30.4149 17.5938L32.9286 21.3947L29.1738 28.7295L34.1383 28.6667H41.5535L38.7571 20.0282Z" fill="#F5841F" stroke="#F5841F" stroke-width="0.25" stroke-linecap="round" stroke-linejoin="round"/>
<path d="M12.6618 17.5938L4.31977 20.0282L1.53906 28.6667H8.93858L13.903 28.7295L10.1483 21.3947L12.6618 17.5938Z" fill="#F5841F" stroke="#F5841F" stroke-width="0.25" stroke-linecap="round" stroke-linejoin="round"/>
<path d="M23.9741 21.8033L24.5082 12.5993L26.9276 6.0498H16.1504L18.5697 12.5993L19.1039 21.8033L19.3081 24.6932L19.3238 31.8397H23.7541L23.7698 24.6932L23.9741 21.8033Z" fill="#F5841F" stroke="#F5841F" stroke-width="0.25" stroke-linecap="round" stroke-linejoin="round"/>
</svg>
