<svg width="204" height="56" viewBox="0 0 204 56" fill="none" xmlns="http://www.w3.org/2000/svg">
<path d="M69.7267 36.5564C67.718 36.5564 65.8431 36.1084 64.1468 35.2124C62.4952 34.3164 61.156 33.062 60.1293 31.4044C59.1473 29.7468 58.6562 27.91 58.6562 25.894C58.6562 23.878 59.1473 22.0412 60.1293 20.4284C61.1114 18.8156 62.4506 17.5612 64.1468 16.6204C65.8431 15.7244 67.6733 15.2764 69.7267 15.2764C71.7355 15.2764 73.6103 15.7244 75.2619 16.6204C76.9582 17.5164 78.2974 18.7708 79.2348 20.4284C80.2169 22.0412 80.7079 23.878 80.7079 25.894C80.7079 27.91 80.2169 29.7468 79.2348 31.4044C78.2528 33.0172 76.9136 34.2716 75.2619 35.2124C73.6103 36.1084 71.7355 36.5564 69.7267 36.5564ZM69.7267 31.942C71.423 31.942 72.8068 31.4044 73.8335 30.2844C74.8602 29.1644 75.3959 27.7308 75.3959 25.894C75.3959 24.0572 74.8602 22.5788 73.8335 21.5036C72.8068 20.3836 71.4676 19.846 69.7267 19.846C67.9858 19.846 66.602 20.3836 65.5753 21.4588C64.5486 22.534 64.0576 24.0124 64.0576 25.8492C64.0576 27.686 64.5486 29.1644 65.5753 30.2396C66.602 31.4044 67.9858 31.942 69.7267 31.942Z" fill="#04111D"/>
<path d="M88.8321 22.1765C89.3232 21.4149 90.0374 20.7877 90.9302 20.2949C91.823 19.8021 92.8943 19.5781 94.0995 19.5781C95.528 19.5781 96.7779 19.9365 97.9385 20.6085C99.0991 21.2805 99.9919 22.2661 100.617 23.5653C101.286 24.8645 101.644 26.3429 101.644 28.0453C101.644 29.7477 101.286 31.2261 100.617 32.5253C99.9472 33.8245 99.0545 34.8101 97.9385 35.5269C96.7779 36.1989 95.528 36.5573 94.0995 36.5573C92.9389 36.5573 91.8676 36.3333 90.9302 35.8405C90.0374 35.3477 89.3232 34.7653 88.8321 34.0037V41.2165H83.6094V19.8021H88.8321V22.1765ZM96.2868 28.0453C96.2868 26.7909 95.9297 25.8053 95.1709 25.0885C94.4567 24.3717 93.5639 24.0133 92.4925 24.0133C91.4658 24.0133 90.5731 24.3717 89.8142 25.0885C89.1 25.8053 88.7429 26.8357 88.7429 28.0901C88.7429 29.3445 89.1 30.3301 89.8142 31.0917C90.5284 31.8085 91.4212 32.1669 92.4925 32.1669C93.5192 32.1669 94.412 31.8085 95.1709 31.0917C95.9297 30.3301 96.2868 29.3445 96.2868 28.0453Z" fill="#04111D"/>
<path d="M120.435 27.8206C120.435 28.3134 120.39 28.8062 120.346 29.299H108.516C108.606 30.3294 108.918 31.1358 109.543 31.6734C110.168 32.211 110.882 32.4798 111.775 32.4798C113.069 32.4798 114.007 31.9422 114.498 30.867H120.078C119.81 31.9422 119.274 32.9278 118.515 33.779C117.801 34.6302 116.864 35.347 115.748 35.8398C114.632 36.3326 113.382 36.6014 111.998 36.6014C110.346 36.6014 108.829 36.243 107.534 35.571C106.24 34.899 105.213 33.9134 104.499 32.6142C103.785 31.315 103.383 29.8366 103.383 28.1342C103.383 26.4318 103.74 24.9086 104.454 23.6542C105.168 22.355 106.195 21.3694 107.49 20.6974C108.784 20.0254 110.302 19.667 111.998 19.667C113.65 19.667 115.123 19.9806 116.417 20.6526C117.712 21.3246 118.694 22.2654 119.408 23.5198C120.078 24.7294 120.435 26.163 120.435 27.8206ZM115.078 26.4766C115.078 25.6254 114.766 24.9086 114.141 24.4158C113.516 23.923 112.757 23.6542 111.864 23.6542C110.971 23.6542 110.257 23.923 109.632 24.4158C109.052 24.9086 108.695 25.6254 108.516 26.5214H115.078V26.4766Z" fill="#04111D"/>
<path d="M133.604 19.667C135.613 19.667 137.175 20.2942 138.38 21.5486C139.586 22.803 140.166 24.5054 140.166 26.7006V36.3326H134.988V27.3726C134.988 26.2526 134.675 25.4014 134.095 24.819C133.515 24.1918 132.711 23.923 131.729 23.923C130.747 23.923 129.944 24.2366 129.363 24.819C128.783 25.4462 128.471 26.2974 128.471 27.3726V36.3326H123.203V19.8014H128.426V21.9966C128.962 21.2798 129.676 20.6974 130.569 20.2942C131.461 19.891 132.488 19.667 133.604 19.667Z" fill="#04111D"/>
<path d="M151.548 36.5564C149.986 36.5564 148.558 36.2876 147.308 35.7948C146.058 35.302 145.076 34.5852 144.317 33.5996C143.603 32.614 143.201 31.4492 143.156 30.1052H148.736C148.825 30.8668 149.093 31.4492 149.584 31.8972C150.031 32.3004 150.656 32.4796 151.414 32.4796C152.173 32.4796 152.798 32.3004 153.245 31.9868C153.691 31.6284 153.914 31.1356 153.914 30.5532C153.914 30.0604 153.736 29.6124 153.379 29.2988C153.021 28.9852 152.575 28.6716 152.084 28.4924C151.593 28.2684 150.834 28.0444 149.897 27.7308C148.513 27.3276 147.397 26.9244 146.504 26.4764C145.611 26.0732 144.853 25.446 144.228 24.6396C143.603 23.8332 143.29 22.758 143.29 21.4588C143.29 19.5324 144.004 18.0092 145.477 16.934C146.906 15.814 148.825 15.2764 151.147 15.2764C153.512 15.2764 155.432 15.814 156.86 16.934C158.289 18.0092 159.092 19.5324 159.182 21.5036H153.512C153.468 20.8316 153.2 20.294 152.754 19.9356C152.307 19.5324 151.682 19.3532 150.968 19.3532C150.343 19.3532 149.807 19.5324 149.45 19.846C149.049 20.1596 148.87 20.6076 148.87 21.2348C148.87 21.9068 149.183 22.4444 149.852 22.8028C150.522 23.1612 151.504 23.5644 152.888 24.0124C154.271 24.4604 155.387 24.9084 156.235 25.3116C157.128 25.7148 157.887 26.342 158.512 27.1036C159.137 27.91 159.449 28.8956 159.449 30.15C159.449 31.3148 159.137 32.39 158.512 33.3756C157.887 34.3612 156.994 35.1228 155.834 35.7052C154.584 36.2876 153.2 36.5564 151.548 36.5564Z" fill="#04111D"/>
<path d="M178.689 27.8206C178.689 28.3134 178.644 28.8062 178.6 29.299H166.77C166.859 30.3294 167.172 31.1358 167.797 31.6734C168.422 32.211 169.136 32.4798 170.029 32.4798C171.323 32.4798 172.261 31.9422 172.752 30.867H178.332C178.064 31.9422 177.528 32.9278 176.769 33.779C176.055 34.6302 175.118 35.347 174.002 35.8398C172.886 36.3326 171.636 36.6014 170.252 36.6014C168.6 36.6014 167.083 36.243 165.788 35.571C164.494 34.899 163.467 33.9134 162.753 32.6142C162.038 31.315 161.637 29.8366 161.637 28.1342C161.637 26.4318 161.994 24.9086 162.708 23.6542C163.422 22.355 164.449 21.3694 165.743 20.6974C167.038 20.0254 168.556 19.667 170.252 19.667C171.904 19.667 173.377 19.9806 174.671 20.6526C175.966 21.3246 176.948 22.2654 177.662 23.5198C178.332 24.7294 178.689 26.163 178.689 27.8206ZM173.332 26.4766C173.332 25.6254 173.02 24.9086 172.395 24.4158C171.77 23.923 171.011 23.6542 170.118 23.6542C169.225 23.6542 168.511 23.923 167.886 24.4158C167.306 24.9086 166.949 25.6254 166.77 26.5214H173.332V26.4766Z" fill="#04111D"/>
<path d="M180.43 28.0453C180.43 26.3429 180.742 24.8645 181.412 23.5653C182.081 22.2661 182.974 21.2805 184.135 20.6085C185.295 19.9365 186.545 19.5781 187.974 19.5781C189.179 19.5781 190.206 19.8021 191.143 20.2949C192.08 20.7877 192.75 21.3701 193.241 22.1765V19.8469H198.464V36.3781H193.241V34.0485C192.75 34.8101 192.036 35.4373 191.098 35.9301C190.206 36.4229 189.134 36.6469 187.929 36.6469C186.545 36.6469 185.295 36.2885 184.135 35.6165C182.974 34.8997 182.081 33.9141 181.412 32.6149C180.742 31.2709 180.43 29.7477 180.43 28.0453ZM193.196 28.0901C193.196 26.8357 192.839 25.8501 192.08 25.0885C191.366 24.3717 190.473 24.0133 189.447 24.0133C188.42 24.0133 187.527 24.3717 186.768 25.0885C186.054 25.8053 185.697 26.7909 185.697 28.0453C185.697 29.2997 186.054 30.3301 186.768 31.0469C187.483 31.7637 188.375 32.1221 189.447 32.1221C190.473 32.1221 191.366 31.7637 192.08 31.0469C192.839 30.3749 193.196 29.3445 193.196 28.0901Z" fill="#04111D"/>
<path d="M49.1038 28.2682C49.1038 40.633 39.1047 50.6682 26.7843 50.6682C14.464 50.6682 4.46484 40.633 4.46484 28.2682C4.46484 15.9034 14.464 5.86816 26.7843 5.86816C39.1047 5.86816 49.1038 15.9034 49.1038 28.2682Z" fill="#2081E2"/>
<path d="M15.4891 29.0307L15.5783 28.8963L21.3814 19.8019C21.4707 19.6675 21.6492 19.6675 21.7385 19.8467C22.7206 22.0419 23.5241 24.7299 23.167 26.4323C22.9884 27.1491 22.542 28.0899 22.0064 28.9411C21.9617 29.0755 21.8724 29.2099 21.7832 29.2995C21.7385 29.3443 21.6939 29.3891 21.6046 29.3891H15.623C15.4891 29.3443 15.3998 29.1651 15.4891 29.0307Z" fill="white"/>
<path d="M41.3352 30.7331V32.1667C41.3352 32.2563 41.2906 32.3011 41.2013 32.3459C40.7549 32.5251 39.1925 33.2419 38.5676 34.1379C36.9159 36.4227 35.666 39.6931 32.8984 39.6931H21.2477C17.1409 39.6931 13.793 36.3331 13.793 32.1667V32.0323C13.793 31.9427 13.8822 31.8531 13.9715 31.8531H20.5334C20.6674 31.8531 20.7566 31.9875 20.7566 32.0771C20.712 32.4803 20.8013 32.9283 20.9798 33.3315C21.3816 34.1379 22.1851 34.5859 23.0332 34.5859H26.2472V32.0771H23.0779C22.8993 32.0771 22.81 31.8979 22.8993 31.7635C22.944 31.7187 22.9886 31.6739 23.0332 31.5843C23.3457 31.1363 23.7475 30.5091 24.1938 29.7475C24.5063 29.2547 24.7741 28.6723 24.9973 28.1347C25.042 28.0451 25.0866 27.9555 25.1313 27.8211C25.1759 27.6419 25.2652 27.4627 25.3098 27.3283C25.3545 27.1939 25.3991 27.0595 25.4437 26.9251C25.533 26.4771 25.5777 25.9843 25.5777 25.4467C25.5777 25.2675 25.5776 25.0435 25.533 24.8195C25.533 24.5955 25.4884 24.3715 25.4884 24.1475C25.4884 23.9683 25.4437 23.7443 25.3991 23.5651C25.3545 23.2515 25.3098 22.9827 25.2205 22.6691L25.1759 22.5795C25.1313 22.4003 25.0866 22.1763 24.9973 21.9971C24.8188 21.3699 24.5956 20.7427 24.3724 20.2051C24.2831 19.9811 24.1938 19.7571 24.1046 19.5331C23.9706 19.2195 23.8367 18.9059 23.7028 18.6371C23.6582 18.5027 23.5689 18.4131 23.5243 18.2787C23.4796 18.1443 23.3903 18.0099 23.3457 17.8755C23.3011 17.7859 23.2564 17.6963 23.2118 17.6067L22.81 16.8899C22.7654 16.8003 22.8547 16.6659 22.944 16.7107L25.3991 17.3827L25.7116 17.4723L26.0687 17.5619L26.2026 17.6067V16.1283C26.2026 15.4115 26.7829 14.8291 27.4525 14.8291C27.8096 14.8291 28.1221 14.9635 28.3453 15.1875C28.5685 15.4115 28.7024 15.7251 28.7024 16.0835V18.2339L28.9702 18.3235C28.9702 18.3235 29.0148 18.3235 29.0148 18.3683C29.0595 18.4131 29.1488 18.5027 29.2827 18.5923C29.372 18.6819 29.4612 18.7715 29.5952 18.8611C29.8184 19.0403 30.1308 19.3091 30.4433 19.5779C30.5326 19.6675 30.6218 19.7123 30.6665 19.8019C31.0682 20.1603 31.5146 20.6083 31.961 21.1011C32.0949 21.2355 32.1842 21.3699 32.3181 21.5043C32.452 21.6387 32.5413 21.8179 32.6752 21.9523C32.8092 22.1315 32.9877 22.3555 33.1216 22.5347C33.1663 22.6243 33.2556 22.7139 33.3002 22.8483C33.4787 23.1171 33.6127 23.3859 33.7912 23.6547C33.8359 23.7891 33.9251 23.9235 33.9698 24.0579C34.1483 24.4163 34.2822 24.7747 34.3269 25.1779C34.3715 25.2675 34.3715 25.3571 34.3715 25.4019C34.4162 25.4915 34.4162 25.6259 34.4162 25.7603C34.4608 26.1635 34.4162 26.5219 34.3715 26.9251C34.3269 27.1043 34.2822 27.2387 34.2376 27.4179C34.193 27.5523 34.1483 27.7315 34.0591 27.9107C33.9251 28.2243 33.7466 28.5379 33.568 28.8515C33.5234 28.9411 33.4341 29.0755 33.3448 29.2099C33.2555 29.3443 33.1663 29.4339 33.1216 29.5683C33.0324 29.7027 32.8984 29.8371 32.8092 29.9715C32.7199 30.1059 32.6306 30.2403 32.4967 30.3747C32.3628 30.5539 32.1842 30.7331 32.0503 30.9123C31.961 31.0019 31.8717 31.1363 31.7378 31.2259C31.6486 31.3155 31.5593 31.4499 31.4254 31.5395C31.2914 31.6739 31.1575 31.8083 31.0236 31.8979L30.7558 32.1219C30.7111 32.1667 30.6665 32.1667 30.6219 32.1667H28.6577V34.6755H31.1129C31.6485 34.6755 32.1842 34.4963 32.586 34.1379C32.7199 34.0035 33.3448 33.4659 34.1037 32.6595C34.1483 32.6147 34.1483 32.6147 34.193 32.6147L40.9781 30.6435C41.2459 30.5091 41.3352 30.5987 41.3352 30.7331Z" fill="white"/>
</svg>
